<?xml version="1.0" encoding="UTF-8" standalone="no"?>
<!DOCTYPE svg PUBLIC "-//W3C//DTD SVG 1.1//EN" "http://www.w3.org/Graphics/SVG/1.1/DTD/svg11.dtd">
<svg width="100%" height="100%" viewBox="0 0 1344 1344" version="1.1" xmlns="http://www.w3.org/2000/svg" xmlns:xlink="http://www.w3.org/1999/xlink" xml:space="preserve" xmlns:serif="http://www.serif.com/" style="fill-rule:evenodd;clip-rule:evenodd;stroke-linejoin:round;stroke-miterlimit:2;">
    <path d="M673.24,0.001C1043.55,0.662 1344,301.521 1344,672C1344,1042.89 1042.89,1344 672,1344C301.113,1344 0,1042.89 0,672C0,301.15 301.053,0.06 671.846,0L672.154,0L673.24,0.001Z" style="fill:url(#_Linear1);"/>
    <g transform="matrix(37.8171,0,0,37.8171,223.648,175.701)">
        <path d="M10.35,17L16,11.35L14.55,9.9L10.325,14.125L8.225,12.025L6.8,13.45L10.35,17ZM6.5,20C4.983,20 3.688,19.475 2.613,18.425C1.538,17.375 1,16.092 1,14.575C1,13.275 1.392,12.117 2.175,11.1C2.958,10.083 3.983,9.433 5.25,9.15C5.667,7.617 6.5,6.375 7.75,5.425C9,4.475 10.417,4 12,4C13.95,4 15.604,4.679 16.963,6.037C18.321,7.396 19,9.05 19,11C20.15,11.133 21.104,11.629 21.863,12.487C22.621,13.346 23,14.35 23,15.5C23,16.75 22.563,17.813 21.688,18.688C20.813,19.563 19.75,20 18.5,20L6.5,20Z" style="fill:white;fill-rule:nonzero;"/>
    </g>
    <defs>
        <linearGradient id="_Linear1" x1="0" y1="0" x2="1" y2="0" gradientUnits="userSpaceOnUse" gradientTransform="matrix(1180.66,-1344,1344,1180.66,163.341,1344)"><stop offset="0" style="stop-color:rgb(0,130,201);stop-opacity:1"/><stop offset="1" style="stop-color:rgb(28,175,255);stop-opacity:1"/></linearGradient>
    </defs>
</svg>
